<?xml version="1.0" encoding="utf-8"?>
<!-- Generator: Adobe Illustrator 17.1.0, SVG Export Plug-In . SVG Version: 6.00 Build 0)  -->
<!DOCTYPE svg PUBLIC "-//W3C//DTD SVG 1.1//EN" "http://www.w3.org/Graphics/SVG/1.1/DTD/svg11.dtd">
<svg version="1.1" id="Layer_4" xmlns="http://www.w3.org/2000/svg" xmlns:xlink="http://www.w3.org/1999/xlink" x="0px" y="0px"
	 viewBox="0 0 1614.5 448" enable-background="new 0 0 1614.5 448" xml:space="preserve">
<g>
	<g>
		<g>
			<defs>
				<rect id="SVGID_1_" x="77.8" y="16.5" width="400.1" height="400.1"/>
			</defs>
			<clipPath id="SVGID_2_">
				<use xlink:href="#SVGID_1_"  overflow="visible"/>
			</clipPath>
		</g>
	</g>
	<g id="XMLID_50_">
		<g id="XMLID_72_">
			<path fill="none" d="M357.8,204.1L287.9,83.2h-93.5l77.1,133.4L194.5,350h93.5l69.9-120.9C362.3,221.4,362.3,211.8,357.8,204.1z"
				/>
			<polygon id="XMLID_80_" fill="#FFC107" points="317.7,296.4 295.6,258 242.4,350 287.9,350 318.3,297.4 			"/>
			<path fill="none" d="M357.8,204.1L287.9,83.2h-93.5l77.1,133.4L194.5,350h93.5l69.9-120.9C362.3,221.4,362.3,211.8,357.8,204.1z"
				/>
			<polygon fill="#0F9D58" points="271.6,216.6 295.6,258 242.4,350 194.5,350 			"/>
			<path fill="none" d="M357.8,204.1L287.9,83.2h-93.5l77.1,133.4L194.5,350h93.5l69.9-120.9C362.3,221.4,362.3,211.8,357.8,204.1z"
				/>
			<polygon opacity="0.2" fill="#BF360C" enable-background="new    " points="287.9,347.9 243.6,347.9 242.4,350 287.9,350 
				318.3,297.4 317.7,296.4 			"/>
			<path fill="none" d="M357.8,204.1L287.9,83.2h-93.5l77.1,133.4L194.5,350h93.5l69.9-120.9C362.3,221.4,362.3,211.8,357.8,204.1z"
				/>
			<polygon opacity="0.2" fill="#263238" enable-background="new    " points="195.7,347.9 194.5,350 242.4,350 243.6,347.9 			"/>
			<path fill="none" d="M357.8,204.1L287.9,83.2h-93.5l77.1,133.4L194.5,350h93.5l69.9-120.9C362.3,221.4,362.3,211.8,357.8,204.1z"
				/>
			<polygon opacity="0.2" fill="#FFFFFF" enable-background="new    " points="194.5,350 195.7,350 272.2,217.6 271.6,216.6 			"/>
			<path fill="none" d="M357.8,204.1L287.9,83.2h-93.5l77.1,133.4L194.5,350h93.5l69.9-120.9C362.3,221.4,362.3,211.8,357.8,204.1z"
				/>
			
				<radialGradient id="XMLID_2_" cx="317.9899" cy="153.433" r="92.2445" gradientTransform="matrix(1 0 0 -1 0 450)" gradientUnits="userSpaceOnUse">
				<stop  offset="0" style="stop-color:#BF360C;stop-opacity:0.2"/>
				<stop  offset="1" style="stop-color:#BF360C;stop-opacity:2.000000e-02"/>
			</radialGradient>
			<polygon id="XMLID_79_" fill="url(#XMLID_2_)" points="318.3,297.4 318.3,297.4 295.6,258 290,267.7 			"/>
			<path fill="none" d="M357.8,204.1L287.9,83.2h-93.5l77.1,133.4L194.5,350h93.5l69.9-120.9C362.3,221.4,362.3,211.8,357.8,204.1z"
				/>
			
				<radialGradient id="XMLID_3_" cx="317.7279" cy="152.8497" r="92.9933" gradientTransform="matrix(1 0 0 -1 0 450)" gradientUnits="userSpaceOnUse">
				<stop  offset="0" style="stop-color:#263238;stop-opacity:0.2"/>
				<stop  offset="1" style="stop-color:#263238;stop-opacity:2.000000e-02"/>
			</radialGradient>
			<polygon id="XMLID_78_" fill="url(#XMLID_3_)" points="290,267.7 295.6,258 271.6,216.6 260.2,236.4 			"/>
			<path fill="none" d="M357.8,204.1L287.9,83.2h-93.5l77.1,133.4L194.5,350h93.5l69.9-120.9C362.3,221.4,362.3,211.8,357.8,204.1z"
				/>
			<g id="XMLID_75_">
				<g id="XMLID_76_">
					<polygon id="XMLID_77_" fill="#4285F4" points="242.4,83.2 194.5,83.2 318.3,297.4 342.3,256 342.3,255.9 					"/>
				</g>
			</g>
			<path fill="none" d="M357.8,204.1L287.9,83.2h-93.5l77.1,133.4L194.5,350h93.5l69.9-120.9C362.3,221.4,362.3,211.8,357.8,204.1z"
				/>
			<path fill="#DB4437" d="M357.8,229.1c4.5-7.7,4.5-17.3,0-25L287.9,83.2h-45.5l99.9,172.7L357.8,229.1z"/>
			<path fill="none" d="M357.8,204.1L287.9,83.2h-93.5l77.1,133.4L194.5,350h93.5l69.9-120.9C362.3,221.4,362.3,211.8,357.8,204.1z"
				/>
			<polygon opacity="0.2" fill="#1A237E" enable-background="new    " points="342.3,255.9 341.7,254.9 318.3,295.3 195.7,83.2 
				194.5,83.2 318.3,297.4 342.3,256 			"/>
			<path fill="none" d="M357.8,204.1L287.9,83.2h-93.5l77.1,133.4L194.5,350h93.5l69.9-120.9C362.3,221.4,362.3,211.8,357.8,204.1z"
				/>
			<path opacity="0.2" fill="#FFFFFF" enable-background="new    " d="M287.9,85.3l69.9,120.9c2.1,3.6,3.1,7.5,3.3,11.5
				c0.2-4.7-0.9-9.4-3.3-13.5L287.9,83.2h-93.5l1.2,2.1H287.9z"/>
			<path fill="none" d="M357.8,204.1L287.9,83.2h-93.5l77.1,133.4L194.5,350h93.5l69.9-120.9C362.3,221.4,362.3,211.8,357.8,204.1z"
				/>
			<path id="XMLID_74_" opacity="0.2" fill="#3E2723" enable-background="new    " d="M342.3,255.9l15.5-26.8
				c2.4-4.2,3.5-8.9,3.3-13.5c-0.2,4-1.2,7.9-3.3,11.5l-16.1,27.9L342.3,255.9z"/>
			<path fill="none" d="M357.8,204.1L287.9,83.2h-93.5l77.1,133.4L194.5,350h93.5l69.9-120.9C362.3,221.4,362.3,211.8,357.8,204.1z"
				/>
			
				<radialGradient id="XMLID_4_" cx="192.3743" cy="364.6949" r="279.9841" gradientTransform="matrix(1 0 0 -1 0 450)" gradientUnits="userSpaceOnUse">
				<stop  offset="0" style="stop-color:#FFFFFF;stop-opacity:0.1"/>
				<stop  offset="1" style="stop-color:#FFFFFF;stop-opacity:0"/>
			</radialGradient>
			<path id="XMLID_73_" fill="url(#XMLID_4_)" d="M357.8,204.1L287.9,83.2h-93.5l77.1,133.4L194.5,350h93.5l69.9-120.9
				C362.3,221.4,362.3,211.8,357.8,204.1z"/>
		</g>
	</g>
</g>
<g id="Layer_4_1_">
	<g id="XMLID_8_" opacity="0.54">
		<g>
			<path d="M470.6,337h-12.8v-99.4h15.6l48.3,77.3h0.6l-0.6-19.2v-58.2h12.8V337h-13.3l-50.5-81.1H470l0.6,19.2V337z"/>
			<path d="M582.8,339.2c-10,0-18.2-3.4-24.7-10.3c-6.5-6.8-9.7-15.5-9.7-26c0-10.4,3.1-19,9.4-25.9c6.3-6.9,14.3-10.3,24.2-10.3
				c10.1,0,18.1,3.3,24.1,9.8c6,6.5,9,15.7,9,27.4l-0.1,1.4h-53.5c0.2,6.7,2.4,12,6.7,16.1c4.3,4.1,9.3,6.1,15.3,6.1
				c8.1,0,14.5-4.1,19.2-12.2l11.4,5.6c-3.1,5.7-7.3,10.2-12.7,13.5C595.7,337.6,589.6,339.2,582.8,339.2z M562.3,294.8h39
				c-0.4-4.7-2.3-8.6-5.8-11.7c-3.5-3.1-8.1-4.7-14-4.7c-4.8,0-9,1.5-12.4,4.4C565.7,285.8,563.5,289.8,562.3,294.8z"/>
			<path d="M721.6,269l-21.9,68h-13.1l-16.9-52.2L652.9,337H640L618,269h13.3l15.1,51.4h0.1l16.8-51.4h13.2l16.8,51.4h0.1l15-51.4
				H721.6z"/>
			<path d="M795.1,290.8V337h-12.8v-46.2l-33.5-53.2h15l24.6,40.4h0.6l24-40.4h15L795.1,290.8z"/>
			<path d="M819.6,303c0-10.5,3.3-19.1,9.9-26c6.7-6.8,15-10.3,25.1-10.3c10.1,0,18.4,3.4,25,10.3c6.7,6.9,10,15.5,10,26
				c0,10.6-3.3,19.2-10,26c-6.6,6.9-14.9,10.3-25,10.3c-10.1,0-18.5-3.4-25.1-10.3C822.9,322.1,819.6,313.4,819.6,303z M832.4,303
				c0,7.3,2.1,13.2,6.4,17.8c4.3,4.5,9.5,6.8,15.8,6.8c6.3,0,11.6-2.3,15.8-6.8c4.3-4.5,6.4-10.5,6.4-17.8c0-7.2-2.1-13.1-6.4-17.6
				c-4.4-4.6-9.6-6.9-15.8-6.9c-6.2,0-11.5,2.3-15.8,6.9C834.5,289.9,832.4,295.8,832.4,303z"/>
			<path d="M912.7,337h-12.8v-68h12.2v11.1h0.6c1.3-3.6,4-6.7,8-9.2c4-2.5,8-3.8,11.9-3.8c3.7,0,6.8,0.6,9.4,1.7l-3.9,12.4
				c-1.6-0.6-4.1-1-7.5-1c-4.8,0-9,1.9-12.6,5.8c-3.6,3.9-5.3,8.4-5.3,13.6V337z"/>
			<path d="M1010.8,337h-15.4l-21.2-32.1l-10.4,10.3V337H951v-99.4h12.8v61.2l29.4-29.9h16.4v0.6l-26.5,26.4l27.8,40.5V337z"/>
			<path d="M1106.9,324.8V337h-60.5v-12.8l24.6-24.9c8.2-8.4,13.9-14.7,17.1-19c3.1-4.2,4.7-8.6,4.7-13.3c0-4.2-1.6-7.7-4.9-10.7
				c-3.2-3-7.4-4.4-12.5-4.4c-4.4,0-8.1,1.3-11.2,3.9c-3.1,2.6-5.2,5.7-6.1,9.4l-11.7-4.7c1.9-5.8,5.4-10.8,10.7-14.8
				c5.3-4,11.5-6,18.6-6c8.6,0,15.8,2.6,21.5,7.9c5.7,5.3,8.6,11.8,8.6,19.4c0,9.2-5,19.1-15.1,29.7l-27.8,27.9H1106.9z"/>
			<path d="M1119.1,289.5c0-14.4,3.6-26.3,10.7-35.7c7.1-9.3,16.3-14,27.5-14c11.2,0,20.4,4.7,27.5,14.2
				c7.1,9.4,10.7,21.2,10.7,35.5c0,14.3-3.6,26.2-10.7,35.7c-7.1,9.4-16.3,14-27.5,14c-11.2,0-20.4-4.7-27.5-14
				C1122.7,315.7,1119.1,303.8,1119.1,289.5z M1182.4,289.5c0-10.9-2.3-19.9-6.9-26.9c-4.5-7-10.6-10.6-18.2-10.6
				c-7.6,0-13.7,3.5-18.2,10.6c-4.6,7-6.9,16-6.9,26.9c0,10.9,2.3,19.9,6.9,27.1c4.5,6.9,10.6,10.4,18.2,10.4
				c7.6,0,13.7-3.5,18.2-10.6C1180.1,309.3,1182.4,300.3,1182.4,289.5z"/>
			<path d="M1241.9,242v95h-12.8v-79.1l-18.5,8.1l-4.9-10.8l27.9-13.1H1241.9z"/>
			<path d="M1295.2,276.7c7.7,0,14.5,3.1,20.5,9.2c6.1,6,9.2,13.2,9.2,21.5c0,8.5-3.2,16-9.7,22.4c-6.6,6.3-14.2,9.4-22.8,9.4
				c-9.2,0-16.9-3.1-23.2-9.4c-6.3-6.3-9.4-13.7-9.4-22.4c0-7.7,3.1-16.4,9.3-26.2l27.6-41.4l10.3,7.1l-23.5,32.5l0.3,0.3
				C1286.7,277.7,1290.5,276.7,1295.2,276.7z M1272.7,307.6c0,5.5,1.9,10.1,5.7,13.9c3.8,3.7,8.5,5.6,14,5.6s10.2-1.9,13.9-5.6
				c3.8-3.8,5.7-8.4,5.7-13.9c0-5.4-1.9-9.9-5.8-13.7c-3.8-3.8-8.4-5.7-13.7-5.7c-5.3,0-9.9,1.9-13.9,5.7
				C1274.6,297.6,1272.7,302.2,1272.7,307.6z"/>
		</g>
		<g>
			<path d="M826.1,196.9V91.3h32.3c16.1,0,29.1,4.9,38.9,14.6c9.8,9.7,14.7,22.5,14.7,38.2c0,15.8-4.9,28.6-14.7,38.3
				c-9.8,9.7-22.7,14.5-38.9,14.5H826.1z M839.6,104.3v79.7h18.7c12.3,0,22-3.5,29.1-10.5c7.1-7,10.6-16.8,10.6-29.3
				c0-12.4-3.5-22.1-10.6-29.2c-7.1-7.1-16.8-10.6-29.1-10.6H839.6z"/>
			<path d="M955.9,199.3c-10.6,0-19.4-3.6-26.3-10.9c-6.9-7.3-10.3-16.5-10.3-27.6c0-11,3.3-20.2,10-27.5c6.7-7.3,15.2-11,25.7-11
				c10.7,0,19.2,3.5,25.6,10.4c6.3,6.9,9.5,16.6,9.5,29.1l-0.1,1.5h-56.8c0.2,7.1,2.6,12.8,7.1,17.1c4.5,4.3,9.9,6.5,16.2,6.5
				c8.7,0,15.4-4.3,20.4-13l12.1,5.9c-3.2,6.1-7.7,10.9-13.5,14.3C969.7,197.5,963.1,199.3,955.9,199.3z M934.2,152h41.4
				c-0.4-5-2.4-9.2-6.1-12.5c-3.7-3.3-8.6-4.9-14.8-4.9c-5.1,0-9.5,1.6-13.2,4.7C937.8,142.5,935.4,146.7,934.2,152z"/>
			<path d="M1036.1,196.9h-13.6l-29.2-72.3h14.8l21.2,56.1h0.3l21.5-56.1h14.5L1036.1,196.9z"/>
			<path d="M1090.4,151.6v45.3h-13.6V91.3h61.7v13h-48.1v34.7h43.4v12.7H1090.4z"/>
			<path d="M1179.5,199.3c-10.6,0-19.4-3.6-26.3-10.9c-6.9-7.3-10.3-16.5-10.3-27.6c0-11,3.3-20.2,10-27.5c6.7-7.3,15.2-11,25.7-11
				c10.7,0,19.2,3.5,25.6,10.4c6.3,6.9,9.5,16.6,9.5,29.1l-0.1,1.5h-56.8c0.2,7.1,2.6,12.8,7.1,17.1c4.5,4.3,9.9,6.5,16.2,6.5
				c8.7,0,15.4-4.3,20.4-13l12.1,5.9c-3.2,6.1-7.7,10.9-13.5,14.3C1193.3,197.5,1186.8,199.3,1179.5,199.3z M1157.8,152h41.4
				c-0.4-5-2.4-9.2-6.1-12.5c-3.7-3.3-8.6-4.9-14.8-4.9c-5.1,0-9.5,1.6-13.2,4.7C1161.4,142.5,1159,146.7,1157.8,152z"/>
			<path d="M1282.2,176.8c0,6.3-2.8,11.6-8.3,15.9c-5.5,4.3-12.4,6.5-20.8,6.5c-7.3,0-13.7-1.9-19.2-5.7c-5.5-3.8-9.4-8.8-11.8-15
				l12.1-5.2c1.8,4.3,4.4,7.7,7.7,10.1c3.4,2.4,7.1,3.6,11.1,3.6c4.3,0,7.9-0.9,10.8-2.8c2.9-1.9,4.4-4.1,4.4-6.6
				c0-4.6-3.5-8-10.6-10.2l-12.4-3.1c-14.1-3.5-21.1-10.3-21.1-20.4c0-6.6,2.7-11.9,8-15.9c5.4-4,12.2-6,20.6-6
				c6.4,0,12.2,1.5,17.3,4.6c5.2,3,8.8,7.1,10.8,12.2l-12.1,5c-1.4-3-3.6-5.4-6.7-7.2c-3.1-1.7-6.6-2.6-10.4-2.6
				c-3.5,0-6.7,0.9-9.5,2.7c-2.8,1.8-4.2,3.9-4.2,6.5c0,4.1,3.9,7.1,11.7,8.9l10.9,2.8C1275,158.7,1282.2,165.9,1282.2,176.8z"/>
			<path d="M1321.8,198.1c-5.9,0-10.8-1.8-14.7-5.5c-3.9-3.6-5.9-8.7-6-15.2V137h-12.7v-12.4h12.7v-22.1h13.6v22.1h17.7V137h-17.7
				v36c0,4.8,0.9,8.1,2.8,9.8c1.9,1.7,4,2.6,6.3,2.6c1.1,0,2.1-0.1,3.2-0.4c1-0.2,2-0.6,2.9-1l4.3,12.1
				C1330.7,197.4,1326.6,198.1,1321.8,198.1z"/>
		</g>
		<path id="XMLID_104_" d="M573.7,91.8h32c32.6,0,53,21.6,53,51.9c0,30.5-20.5,51.9-53,51.9h-32L573.7,91.8L573.7,91.8z M606.2,180
			c22.7,0,36.7-12.6,36.7-36.2c0-23.5-14-36.2-36.7-36.2h-16.8V180H606.2z"/>
		<rect id="XMLID_103_" x="453.5" y="89.1" fill="none" width="321.1" height="113.3"/>
		<path id="XMLID_102_" d="M560.6,139h-49.8v15.4h35.1c-1.2,7.9-3.9,14-8,18.1c-5.2,5.2-13.3,10.9-27.6,10.9
			c-22,0-39.2-17.7-39.2-39.7s17.2-39.7,39.2-39.7c11.9,0,20.5,4.7,26.9,10.7l10.5-10.5c-8.9-8.5-20.8-15.1-37.5-15.1
			c-30.1,0-55.5,24.5-55.5,54.7c0,30.1,25.3,54.7,55.5,54.7c16.3,0,28.5-5.3,38.1-15.3c9.9-9.9,12.9-23.7,12.9-34.9
			C561.4,144.7,561.1,141.7,560.6,139z"/>
		<path id="XMLID_86_" d="M774.7,139h-49.8v15.4H760c-1.2,7.9-3.9,14-8,18.1c-5.2,5.2-13.3,10.9-27.6,10.9
			c-22,0-39.2-17.7-39.2-39.7s17.2-39.7,39.2-39.7c11.9,0,20.5,4.7,26.9,10.7l10.5-10.5c-8.9-8.5-20.8-15.1-37.5-15.1
			c-30.1,0-55.5,24.5-55.5,54.7c0,30.1,25.3,54.7,55.5,54.7c16.3,0,28.5-5.3,38.1-15.3c9.9-9.9,12.9-23.7,12.9-34.9
			C775.5,144.7,775.2,141.7,774.7,139z"/>
	</g>
</g>
</svg>
