<?xml version="1.0" encoding="utf-8"?>
<!-- Generator: Adobe Illustrator 17.1.0, SVG Export Plug-In . SVG Version: 6.00 Build 0)  -->
<!DOCTYPE svg PUBLIC "-//W3C//DTD SVG 1.1//EN" "http://www.w3.org/Graphics/SVG/1.1/DTD/svg11.dtd">
<svg version="1.1" id="Layer_4" xmlns="http://www.w3.org/2000/svg" xmlns:xlink="http://www.w3.org/1999/xlink" x="0px" y="0px"
	 viewBox="0 613.5 1600 361.1" enable-background="new 0 613.5 1600 361.1" xml:space="preserve">
<g>
	<g id="XMLID_50_">
		<g id="XMLID_72_">
			<path fill="none" d="M217.4,776.5l-90.3-156.2H6.4L106,792.7L6.5,965h120.8l90.3-156.2C223.3,798.9,223.3,786.5,217.4,776.5z"/>
			<polygon id="XMLID_80_" fill="#FFC107" points="165.6,895.8 137.1,846.1 68.4,965 127.1,965 166.4,897 			"/>
			<path fill="none" d="M217.4,776.5l-90.3-156.2H6.4L106,792.7L6.5,965h120.8l90.3-156.2C223.3,798.9,223.3,786.5,217.4,776.5z"/>
			<polygon fill="#0F9D58" points="106.1,792.7 137.1,846.1 68.4,965 6.5,965 			"/>
			<path fill="none" d="M217.4,776.5l-90.3-156.2H6.4L106,792.7L6.5,965h120.8l90.3-156.2C223.3,798.9,223.3,786.5,217.4,776.5z"/>
			<polygon opacity="0.2" fill="#BF360C" enable-background="new    " points="127.1,962.3 69.9,962.3 68.4,965 127.1,965 
				166.4,897 165.6,895.8 			"/>
			<path fill="none" d="M217.4,776.5l-90.3-156.2H6.4L106,792.7L6.5,965h120.8l90.3-156.2C223.3,798.9,223.3,786.5,217.4,776.5z"/>
			<polygon opacity="0.2" fill="#263238" enable-background="new    " points="8,962.3 6.5,965 68.4,965 69.9,962.3 			"/>
			<path fill="none" d="M217.4,776.5l-90.3-156.2H6.4L106,792.7L6.5,965h120.8l90.3-156.2C223.3,798.9,223.3,786.5,217.4,776.5z"/>
			<polygon opacity="0.2" fill="#FFFFFF" enable-background="new    " points="6.5,965 8,965 106.9,794 106.1,792.7 			"/>
			<path fill="none" d="M217.4,776.5l-90.3-156.2H6.4L106,792.7L6.5,965h120.8l90.3-156.2C223.3,798.9,223.3,786.5,217.4,776.5z"/>
			
				<radialGradient id="XMLID_2_" cx="167.5195" cy="1470.8407" r="120.2449" gradientTransform="matrix(0.991 0 0 0.991 0 -561.66)" gradientUnits="userSpaceOnUse">
				<stop  offset="0" style="stop-color:#BF360C;stop-opacity:0.2"/>
				<stop  offset="1" style="stop-color:#BF360C;stop-opacity:2.000000e-02"/>
			</radialGradient>
			<polygon id="XMLID_79_" fill="url(#XMLID_2_)" points="166.4,897 166.4,897 137.1,846.1 129.9,858.7 			"/>
			<path fill="none" d="M217.4,776.5l-90.3-156.2H6.4L106,792.7L6.5,965h120.8l90.3-156.2C223.3,798.9,223.3,786.5,217.4,776.5z"/>
			
				<radialGradient id="XMLID_3_" cx="167.178" cy="1471.6011" r="121.221" gradientTransform="matrix(0.991 0 0 0.991 0 -561.66)" gradientUnits="userSpaceOnUse">
				<stop  offset="0" style="stop-color:#263238;stop-opacity:0.2"/>
				<stop  offset="1" style="stop-color:#263238;stop-opacity:2.000000e-02"/>
			</radialGradient>
			<polygon id="XMLID_78_" fill="url(#XMLID_3_)" points="129.9,858.7 137.1,846.1 106.1,792.7 91.4,818.2 			"/>
			<path fill="none" d="M217.4,776.5l-90.3-156.2H6.4L106,792.7L6.5,965h120.8l90.3-156.2C223.3,798.9,223.3,786.5,217.4,776.5z"/>
			<g id="XMLID_75_">
				<g id="XMLID_76_">
					<polygon id="XMLID_77_" fill="#4285F4" points="68.4,620.3 6.5,620.3 166.4,897 197.4,843.6 197.4,843.4 					"/>
				</g>
			</g>
			<path fill="none" d="M217.4,776.5l-90.3-156.2H6.4L106,792.7L6.5,965h120.8l90.3-156.2C223.3,798.9,223.3,786.5,217.4,776.5z"/>
			<path fill="#DB4437" d="M217.4,808.8c5.8-9.9,5.8-22.3,0-32.3l-90.3-156.2H68.4l129.1,223.1L217.4,808.8z"/>
			<path fill="none" d="M217.4,776.5l-90.3-156.2H6.4L106,792.7L6.5,965h120.8l90.3-156.2C223.3,798.9,223.3,786.5,217.4,776.5z"/>
			<polygon opacity="0.2" fill="#1A237E" enable-background="new    " points="197.4,843.4 196.6,842.1 166.4,894.3 8,620.3 
				6.5,620.3 166.4,897 197.4,843.6 			"/>
			<path fill="none" d="M217.4,776.5l-90.3-156.2H6.4L106,792.7L6.5,965h120.8l90.3-156.2C223.3,798.9,223.3,786.5,217.4,776.5z"/>
			<path opacity="0.2" fill="#FFFFFF" enable-background="new    " d="M127.1,623l90.3,156.2c2.7,4.7,4,9.7,4.3,14.9
				c0.3-6.1-1.2-12.1-4.3-17.4l-90.3-156.3H6.4l1.6,2.7C7.9,623,127.1,623,127.1,623z"/>
			<path fill="none" d="M217.4,776.5l-90.3-156.2H6.4L106,792.7L6.5,965h120.8l90.3-156.2C223.3,798.9,223.3,786.5,217.4,776.5z"/>
			<path id="XMLID_74_" opacity="0.2" fill="#3E2723" enable-background="new    " d="M197.4,843.4l20-34.6
				c3.1-5.4,4.5-11.5,4.3-17.4c-0.3,5.2-1.6,10.2-4.3,14.9l-20.8,36L197.4,843.4z"/>
			<path fill="none" d="M217.4,776.5l-90.3-156.2H6.4L106,792.7L6.5,965h120.8l90.3-156.2C223.3,798.9,223.3,786.5,217.4,776.5z"/>
			
				<radialGradient id="XMLID_4_" cx="3.7738" cy="1195.4512" r="364.9721" gradientTransform="matrix(0.991 0 0 0.991 0 -561.66)" gradientUnits="userSpaceOnUse">
				<stop  offset="0" style="stop-color:#FFFFFF;stop-opacity:0.1"/>
				<stop  offset="1" style="stop-color:#FFFFFF;stop-opacity:0"/>
			</radialGradient>
			<path id="XMLID_73_" fill="url(#XMLID_4_)" d="M217.4,776.5l-90.3-156.2H6.4L106,792.7L6.5,965h120.8l90.3-156.2
				C223.3,798.9,223.3,786.5,217.4,776.5z"/>
		</g>
	</g>
</g>
<g>
	<path fill="#FFFFFF" d="M371.6,947.5h-15V830.9h18.3l56.7,90.7h0.7l-0.7-22.5v-68.3h15v116.7h-15.6l-59.2-95.1h-0.8l0.7,22.5V947.5
		z"/>
	<path fill="#FFFFFF" d="M503.2,950.1c-11.7,0-21.3-4-29-12.1c-7.6-8-11.4-18.2-11.4-30.5c0-12.2,3.6-22.3,11-30.4
		c7.4-8.1,16.8-12.1,28.4-12.1c11.8,0,21.2,3.9,28.3,11.5c7,7.6,10.6,18.4,10.6,32.1l-0.1,1.6h-62.8c0.2,7.9,2.8,14.1,7.9,18.9
		c5,4.8,10.9,7.2,17.9,7.2c9.5,0,17-4.8,22.5-14.3l13.4,6.6c-3.6,6.7-8.6,12-14.9,15.8C518.3,948.2,511.2,950.1,503.2,950.1z
		 M479.1,898h45.7c-0.5-5.5-2.7-10.1-6.8-13.7c-4.1-3.6-9.5-5.5-16.4-5.5c-5.6,0-10.6,1.8-14.5,5.2
		C483.1,887.4,480.6,892.1,479.1,898z"/>
	<path fill="#FFFFFF" d="M666,867.7l-25.7,79.8H625l-19.8-61.2l-19.7,61.2h-15.1l-25.8-79.8h15.6l17.7,60.3h0.1l19.7-60.3h15.5
		l19.7,60.3h0.1l17.6-60.3H666z"/>
	<path fill="#FFFFFF" d="M752.2,893.3v54.2h-15v-54.2l-39.3-62.4h17.6l28.9,47.4h0.7l28.2-47.4h17.6L752.2,893.3z"/>
	<path fill="#FFFFFF" d="M781,907.6c0-12.3,3.9-22.4,11.6-30.5c7.9-8,17.6-12.1,29.4-12.1s21.6,4,29.3,12.1
		c7.9,8.1,11.7,18.2,11.7,30.5c0,12.4-3.9,22.5-11.7,30.5c-7.7,8.1-17.5,12.1-29.3,12.1s-21.7-4-29.4-12.1S781,919.8,781,907.6z
		 M796,907.6c0,8.6,2.5,15.5,7.5,20.9c5,5.3,11.1,8,18.5,8s13.6-2.7,18.5-8c5-5.3,7.5-12.3,7.5-20.9c0-8.4-2.5-15.4-7.5-20.6
		c-5.2-5.4-11.3-8.1-18.5-8.1s-13.5,2.7-18.5,8.1C798.4,892.2,796,899.2,796,907.6z"/>
	<path fill="#FFFFFF" d="M890.2,947.5h-15v-79.8h14.3v13h0.7c1.5-4.2,4.7-7.9,9.4-10.8c4.7-2.9,9.4-4.5,14-4.5c4.3,0,8,0.7,11,2
		L920,882c-1.9-0.7-4.8-1.2-8.8-1.2c-5.6,0-10.6,2.2-14.8,6.8c-4.2,4.6-6.2,9.9-6.2,16L890.2,947.5L890.2,947.5z"/>
	<path fill="#FFFFFF" d="M1005.2,947.5h-18.1l-24.9-37.7l-12.2,12.1v25.6h-15V830.9h15v71.8l34.5-35.1h19.2v0.7l-31.1,31l32.6,47.5
		v0.7H1005.2z"/>
	<path fill="#FFFFFF" d="M1118,933.2v14.3h-71v-15l28.9-29.2c9.6-9.9,16.3-17.2,20.1-22.3c3.6-4.9,5.5-10.1,5.5-15.6
		c0-4.9-1.9-9-5.7-12.6c-3.8-3.5-8.7-5.2-14.7-5.2c-5.2,0-9.5,1.5-13.1,4.6c-3.6,3-6.1,6.7-7.2,11l-13.7-5.5
		c2.2-6.8,6.3-12.7,12.6-17.4c6.2-4.7,13.5-7,21.8-7c10.1,0,18.5,3,25.2,9.3c6.7,6.2,10.1,13.8,10.1,22.8c0,10.8-5.9,22.4-17.7,34.8
		l-32.6,32.7h51.6V933.2z"/>
	<path fill="#FFFFFF" d="M1132.3,891.8c0-16.9,4.2-30.9,12.6-41.9c8.3-10.9,19.1-16.4,32.3-16.4c13.1,0,23.9,5.5,32.3,16.7
		c8.3,11,12.6,24.9,12.6,41.6s-4.2,30.7-12.6,41.9c-8.3,11-19.1,16.4-32.3,16.4c-13.1,0-23.9-5.5-32.3-16.4
		C1136.5,922.5,1132.3,908.6,1132.3,891.8z M1206.5,891.8c0-12.8-2.7-23.3-8.1-31.6c-5.3-8.2-12.4-12.4-21.3-12.4
		c-8.9,0-16.1,4.1-21.3,12.4c-5.4,8.2-8.1,18.8-8.1,31.6s2.7,23.3,8.1,31.8c5.3,8.1,12.4,12.2,21.3,12.2c8.9,0,16.1-4.1,21.3-12.4
		C1203.8,915,1206.5,904.4,1206.5,891.8z"/>
	<path fill="#FFFFFF" d="M1276.3,836.1v111.4h-15v-92.8l-21.7,9.5l-5.7-12.7l32.7-15.4h9.7V836.1z"/>
	<path fill="#FFFFFF" d="M1338.8,876.8c9,0,17,3.6,24,10.8c7.2,7,10.8,15.5,10.8,25.2c0,10-3.8,18.8-11.4,26.3
		c-7.7,7.4-16.7,11-26.7,11c-10.8,0-19.8-3.6-27.2-11c-7.4-7.4-11-16.1-11-26.3c0-9,3.6-19.2,10.9-30.7l32.4-48.6l12.1,8.3
		l-27.6,38.1l0.4,0.4C1328.9,877.9,1333.3,876.8,1338.8,876.8z M1312.5,913c0,6.5,2.2,11.8,6.7,16.3c4.5,4.3,10,6.6,16.4,6.6
		s12-2.2,16.3-6.6c4.5-4.5,6.7-9.9,6.7-16.3c0-6.3-2.2-11.6-6.8-16.1c-4.5-4.5-9.9-6.7-16.1-6.7c-6.2,0-11.6,2.2-16.3,6.7
		C1314.7,901.3,1312.5,906.7,1312.5,913z"/>
</g>
<g>
	<path fill="#FFFFFF" d="M846.6,775.2V633.3H890c21.6,0,39.1,6.6,52.3,19.6c13.2,13,19.7,30.2,19.7,51.3c0,21.2-6.6,38.4-19.7,51.4
		s-30.5,19.5-52.3,19.5H846.6L846.6,775.2z M864.8,650.8v107.1h25.1c16.5,0,29.6-4.7,39.1-14.1c9.5-9.4,14.2-22.6,14.2-39.4
		c0-16.7-4.7-29.7-14.2-39.2c-9.5-9.5-22.6-14.2-39.1-14.2h-25.1V650.8z"/>
	<path fill="#FFFFFF" d="M1021,778.4c-14.2,0-26.1-4.8-35.3-14.6c-9.3-9.8-13.8-22.2-13.8-37.1c0-14.8,4.4-27.1,13.4-36.9
		s20.4-14.8,34.5-14.8c14.4,0,25.8,4.7,34.4,14c8.5,9.3,12.8,22.3,12.8,39.1l-0.1,2h-76.3c0.3,9.5,3.5,17.2,9.5,23
		c6,5.8,13.3,8.7,21.8,8.7c11.7,0,20.7-5.8,27.4-17.5l16.3,7.9c-4.3,8.2-10.3,14.6-18.1,19.2S1030.7,778.4,1021,778.4z M991.8,714.9
		h55.6c-0.5-6.7-3.2-12.4-8.2-16.8c-5-4.4-11.6-6.6-19.9-6.6c-6.9,0-12.8,2.1-17.7,6.3C996.7,702.1,993.4,707.8,991.8,714.9z"/>
	<path fill="#FFFFFF" d="M1128.7,775.2h-18.3l-39.2-97.1h19.9l28.5,75.4h0.4l28.9-75.4h19.5L1128.7,775.2z"/>
	<path fill="#FFFFFF" d="M1201.6,714.3v60.8h-18.3V633.3h82.9v17.5h-64.6v46.6h58.3v17.1h-58.3V714.3z"/>
	<path fill="#FFFFFF" d="M1321.3,778.4c-14.2,0-26.1-4.8-35.3-14.6s-13.8-22.2-13.8-37.1c0-14.8,4.4-27.1,13.4-36.9
		c9-9.8,20.4-14.8,34.5-14.8c14.4,0,25.8,4.7,34.4,14c8.5,9.3,12.8,22.3,12.8,39.1l-0.1,2h-76.3c0.3,9.5,3.5,17.2,9.5,23
		c6,5.8,13.3,8.7,21.8,8.7c11.7,0,20.7-5.8,27.4-17.5l16.3,7.9c-4.3,8.2-10.3,14.6-18.1,19.2C1339.9,776,1331.1,778.4,1321.3,778.4z
		 M1292.2,714.9h55.6c-0.5-6.7-3.2-12.4-8.2-16.8c-5-4.4-11.6-6.6-19.9-6.6c-6.9,0-12.8,2.1-17.7,6.3
		C1297,702.1,1293.8,707.8,1292.2,714.9z"/>
	<path fill="#FFFFFF" d="M1459.3,748.2c0,8.5-3.8,15.6-11.1,21.4c-7.4,5.8-16.7,8.7-27.9,8.7c-9.8,0-18.4-2.6-25.8-7.7
		c-7.4-5.1-12.6-11.8-15.9-20.1l16.3-7c2.4,5.8,5.9,10.3,10.3,13.6c4.6,3.2,9.5,4.8,14.9,4.8c5.8,0,10.6-1.2,14.5-3.8
		c3.9-2.6,5.9-5.5,5.9-8.9c0-6.2-4.7-10.7-14.2-13.7l-16.7-4.2c-18.9-4.7-28.3-13.8-28.3-27.4c0-8.9,3.6-16,10.7-21.4
		c7.3-5.4,16.4-8.1,27.7-8.1c8.6,0,16.4,2,23.2,6.2c7,4,11.8,9.5,14.5,16.4l-16.3,6.7c-1.9-4-4.8-7.3-9-9.7c-4.2-2.3-8.9-3.5-14-3.5
		c-4.7,0-9,1.2-12.8,3.6s-5.6,5.2-5.6,8.7c0,5.5,5.2,9.5,15.7,12l14.6,3.8C1449.6,723.9,1459.3,733.5,1459.3,748.2z"/>
	<path fill="#FFFFFF" d="M1512.5,776.8c-7.9,0-14.5-2.4-19.7-7.4c-5.2-4.8-7.9-11.7-8.1-20.4v-54.3h-17.1v-16.7h17.1v-29.7h18.3
		v29.7h23.8v16.7h-23.8v48.4c0,6.4,1.2,10.9,3.8,13.2c2.6,2.3,5.4,3.5,8.5,3.5c1.5,0,2.8-0.1,4.3-0.5c1.3-0.3,2.7-0.8,3.9-1.3
		l5.8,16.3C1524.4,775.9,1518.9,776.8,1512.5,776.8z"/>
</g>
<path id="XMLID_104_" fill="#FFFFFF" d="M507.6,634h43c43.8,0,71.2,29,71.2,69.7c0,41-27.5,69.7-71.2,69.7h-43V634L507.6,634z
	 M551.3,752.5c30.5,0,49.3-16.9,49.3-48.6c0-31.6-18.8-48.6-49.3-48.6h-22.6v97.3H551.3z"/>
<path id="XMLID_102_" fill="#FFFFFF" d="M490,697.4h-66.9v20.7h47.1c-1.6,10.6-5.2,18.8-10.7,24.3c-7,7-17.9,14.6-37.1,14.6
	c-29.6,0-52.7-23.8-52.7-53.3s23.1-53.3,52.7-53.3c16,0,27.5,6.3,36.1,14.4l14.1-14.1c-12-11.4-27.9-20.3-50.4-20.3
	c-40.4,0-74.5,32.9-74.5,73.5c0,40.4,34,73.5,74.5,73.5c21.9,0,38.3-7.1,51.2-20.6c13.3-13.3,17.3-31.8,17.3-46.9
	C491.1,705.1,490.7,701,490,697.4z"/>
<path id="XMLID_86_" fill="#FFFFFF" d="M777.6,697.4h-66.9v20.7h47.1c-1.6,10.6-5.2,18.8-10.7,24.3c-7,7-17.9,14.6-37.1,14.6
	c-29.6,0-52.7-23.8-52.7-53.3s23.1-53.3,52.7-53.3c16,0,27.5,6.3,36.1,14.4l14.1-14.1c-12-11.4-27.9-20.3-50.4-20.3
	c-40.4,0-74.5,32.9-74.5,73.5c0,40.4,34,73.5,74.5,73.5c21.9,0,38.3-7.1,51.2-20.6c13.3-13.3,17.3-31.8,17.3-46.9
	C778.7,705.1,778.3,701,777.6,697.4z"/>
</svg>
