<?xml version="1.0" encoding="utf-8"?>
<!-- Generator: Adobe Illustrator 17.1.0, SVG Export Plug-In . SVG Version: 6.00 Build 0)  -->
<!DOCTYPE svg PUBLIC "-//W3C//DTD SVG 1.1//EN" "http://www.w3.org/Graphics/SVG/1.1/DTD/svg11.dtd">
<svg version="1.1" id="Layer_4" xmlns="http://www.w3.org/2000/svg" xmlns:xlink="http://www.w3.org/1999/xlink" x="0px" y="0px"
	 viewBox="-57.1 583 1600 445.3" enable-background="new -57.1 583 1600 445.3" xml:space="preserve">
<g id="XMLID_7_">
	<path id="XMLID_2_" fill="#FFFFFF" d="M468.3,713.8c0,20.8-6.1,37.6-18.5,49.8c-14.1,14.6-32.4,22.1-54.9,22.1
		c-21.5,0-39.9-7.4-54.9-22.5c-15.1-14.9-22.7-33.6-22.7-55.5s7.6-40.6,22.7-55.5s33.4-22.5,54.9-22.5c10.7,0,21,2.1,30.7,6.3
		s17.5,9.7,23.3,16.8L435.7,666c-9.9-11.8-23.5-17.7-40.8-17.7c-15.6,0-29.4,5.5-40.8,16.6s-17.2,25.4-17.2,43.1
		c0,17.7,5.7,32,17.2,43.1c11.4,11.1,25,16.6,40.8,16.6c16.8,0,30.5-5.5,41.8-16.8c7.2-7.2,11.4-17.4,12.6-30.3h-54.4v-17.9h72.5
		C467.9,706.5,468.3,710.2,468.3,713.8L468.3,713.8z"/>
	<path id="XMLID_4_" fill="#FFFFFF" d="M487.2,782.4V633.1h45.7c22.9,0,41.4,6.9,55.1,20.8c13.7,13.9,20.6,31.8,20.6,54
		c0,22.1-6.9,40-20.6,54c-13.7,13.9-32,20.8-55.1,20.8h-45.8L487.2,782.4L487.2,782.4z M506.4,764.1h26.5c17.2,0,30.9-5,41-14.9
		s15.1-23.6,15.1-41.6c0-17.7-5-31.5-15.1-41.4s-23.8-14.9-41-14.9h-26.5V764.1L506.4,764.1z"/>
	<path id="XMLID_8_" fill="#FFFFFF" d="M771.5,713.8c0,20.8-6.1,37.6-18.5,49.8c-14.1,14.6-32.4,22.1-54.9,22.1
		c-21.5,0-39.9-7.4-54.9-22.5c-15.1-14.9-22.7-33.6-22.7-55.5s7.6-40.6,22.7-55.5c15.1-14.9,33.4-22.5,54.9-22.5
		c10.7,0,21,2.1,30.7,6.3s17.5,9.7,23.3,16.8l-13.2,13.1c-9.9-11.8-23.5-17.7-40.8-17.7c-15.6,0-29.4,5.5-40.8,16.6
		s-17.2,25.4-17.2,43.1c0,17.7,5.7,32,17.2,43.1s25,16.6,40.8,16.6c16.8,0,30.5-5.5,41.8-16.8c7.2-7.2,11.4-17.4,12.6-30.3h-54.4
		v-17.9h72.5C771.1,706.5,771.5,710.2,771.5,713.8L771.5,713.8z"/>
	<path id="XMLID_10_" fill="#FFFFFF" d="M840.7,782.4V633.1h45.8c22.9,0,41.4,6.9,55.1,20.8s20.6,31.8,20.6,54
		c0,22.1-6.9,40-20.6,54c-13.7,13.9-32,20.8-55.1,20.8h-45.8V782.4z M860,764.1h26.5c17.2,0,30.9-5,41-14.9s15.1-23.6,15.1-41.6
		c0-17.7-5-31.5-15.1-41.4s-23.8-14.9-41-14.9H860V764.1L860,764.1z"/>
	<path id="XMLID_13_" fill="#FFFFFF" d="M1025,785.9c-15.4,0-28-5.1-37.6-15.4c-9.7-10.3-14.5-23.3-14.5-39.1
		c0-14.9,4.8-27.7,14.1-38.3s21.4-16,36-16c15.1,0,27.3,5,36.4,14.9c9.2,9.9,13.7,23.1,13.7,39.7l-0.2,3.6h-80.7
		c0.6,10.3,4,18.5,10.3,24.4s13.7,9,22.1,9c13.7,0,23.1-5.9,28-17.5l17.2,7.1c-3.4,8-8.8,14.5-16.4,19.8
		C1045.5,783.2,1036.2,785.9,1025,785.9L1025,785.9z M1052.6,719.1c-0.4-5.9-3.1-11.4-8-16.8c-5-5.3-12.2-8-21.9-8
		c-7.1,0-13.2,2.3-18.5,6.7c-5.1,4.4-8.8,10.5-10.7,17.9h59.1V719.1z"/>
	<path id="XMLID_16_" fill="#FFFFFF" d="M1113.2,782.4l-41.3-102.2h21l30.1,79.3h0.4l30.5-79.3h20.4l-41.8,102.2H1113.2z"/>
	<path id="XMLID_18_" fill="#FFFFFF" d="M1204.6,782.4h-19.3V633.1h87.2v18.3h-68.1v49h61.4v17.9h-61.4v64.1H1204.6z"/>
	<path id="XMLID_20_" fill="#FFFFFF" d="M1330.6,785.9c-15.4,0-28-5.1-37.6-15.4c-9.7-10.3-14.5-23.3-14.5-39.1
		c0-14.9,4.8-27.7,14.1-38.3c9.3-10.7,21.4-16,36-16c15.1,0,27.3,5,36.4,14.9s13.7,23.1,13.7,39.7l-0.2,3.6h-80.7
		c0.6,10.3,4,18.5,10.3,24.4s13.7,9,22.1,9c13.7,0,23.1-5.9,28-17.5l17.2,7.1c-3.4,8-8.8,14.5-16.4,19.8
		C1351.1,783.2,1341.7,785.9,1330.6,785.9L1330.6,785.9z M1358.1,719.1c-0.4-5.9-3.1-11.4-8-16.8c-5-5.3-12.2-8-21.9-8
		c-7.1,0-13.2,2.3-18.5,6.7c-5.1,4.4-8.8,10.5-10.7,17.9h59.1V719.1z"/>
	<path id="XMLID_27_" fill="#FFFFFF" d="M1429.4,785.9c-11.4,0-20.8-2.9-28.2-8.4c-7.4-5.5-13-12.6-16.4-20.8l17.2-7.1
		c5.3,12.8,14.7,19.3,27.7,19.3c5.9,0,10.9-1.3,14.7-4c3.8-2.7,5.7-6.1,5.7-10.5c0-6.7-4.6-11.3-13.9-13.5l-20.6-5
		c-6.5-1.7-12.8-4.8-18.5-9.5c-5.9-4.6-8.8-10.9-8.8-18.9c0-9,4-16.4,12-21.9c8-5.7,17.5-8.4,28.4-8.4c9,0,17.2,2.1,24.2,6.1
		c7.1,4.2,12.2,9.9,15.3,17.5l-16.8,6.9c-3.8-9-11.6-13.5-23.3-13.5c-5.7,0-10.5,1.1-14.3,3.6c-3.8,2.3-5.9,5.5-5.9,9.5
		c0,5.9,4.6,9.7,13.5,11.8l20.2,4.8c9.5,2.3,16.8,6.1,21.4,11.4c4.6,5.3,6.9,11.6,6.9,18.3c0,9.2-3.8,16.8-11.3,22.9
		C1451,782.8,1441.3,785.9,1429.4,785.9L1429.4,785.9z"/>
	<path id="XMLID_29_" fill="#FFFFFF" d="M1527.5,784.2c-10.7,0-18.9-2.9-24.6-8.6c-5.7-5.7-8.4-13.7-8.4-24.2v-53.6h-17.9v-17.5
		h17.9V649h19.3v31.3h25v17.5h-25v52.1c0,11.1,4.6,16.8,13.7,16.8c3.4,0,6.5-0.6,8.8-1.7l6.7,16.4
		C1538.7,783.2,1533.6,784.2,1527.5,784.2L1527.5,784.2z"/>
	<g>
		<path fill="#FFFFFF" d="M337.5,979.6h-18V839.4h21.9l68.2,109.1h0.8l-0.8-27v-82.1h18v140.2h-18.8l-71.3-114.4h-0.8l0.8,27
			L337.5,979.6L337.5,979.6z"/>
		<path fill="#FFFFFF" d="M495.8,982.7c-14.1,0-25.7-4.8-34.9-14.5c-9.1-9.7-13.7-21.9-13.7-36.6c0-14.6,4.4-26.8,13.3-36.5
			c8.9-9.7,20.2-14.6,34.1-14.6c14.2,0,25.6,4.6,34,13.8s12.6,22.1,12.6,38.7l-0.2,2h-75.4c0.3,9.4,3.4,17,9.4,22.7
			s13.2,8.6,21.5,8.6c11.5,0,20.5-5.7,27-17.2l16.1,7.8c-4.3,8.1-10.3,14.4-17.9,19C514.1,980.5,505.4,982.7,495.8,982.7z
			 M467,920.1h55c-0.5-6.7-3.2-12.2-8.1-16.5c-4.9-4.4-11.5-6.6-19.7-6.6c-6.8,0-12.6,2.1-17.5,6.3C471.8,907.4,468.5,913,467,920.1
			z"/>
		<path fill="#FFFFFF" d="M691.6,883.7l-30.9,96h-18.4l-23.9-73.6l-23.7,73.6h-18.2l-30.9-96h18.8l21.3,72.5h0.2l23.7-72.5h18.6
			l23.7,72.5h0.2l21.2-72.5H691.6z"/>
		<path fill="#FFFFFF" d="M795.2,914.4v65.2h-18v-65.2l-47.2-75h21.2l34.7,57h0.8l33.9-57h21.2L795.2,914.4z"/>
		<path fill="#FFFFFF" d="M829.9,931.6c0-14.8,4.6-27,13.9-36.6c9.4-9.7,21.2-14.5,35.4-14.5s26,4.8,35.3,14.5
			c9.4,9.7,14.1,21.9,14.1,36.6c0,14.9-4.7,27.1-14.1,36.6c-9.3,9.7-21,14.5-35.3,14.5c-14.2,0-26-4.8-35.4-14.5
			C834.5,958.6,829.9,946.4,829.9,931.6z M847.9,931.6c0,10.3,3,18.7,9,25.1c6,6.4,13.4,9.6,22.3,9.6c8.9,0,16.3-3.2,22.3-9.6
			c6-6.4,9-14.8,9-25.1c0-10.2-3-18.5-9-24.9c-6.1-6.5-13.6-9.8-22.3-9.8s-16.2,3.3-22.3,9.8C850.9,913.2,847.9,921.4,847.9,931.6z"
			/>
		<path fill="#FFFFFF" d="M961.1,979.6h-18v-96h17.2v15.7h0.8c1.8-5.1,5.6-9.4,11.3-13c5.7-3.6,11.3-5.4,16.7-5.4
			c5.2,0,9.7,0.8,13.3,2.3l-5.5,17.5c-2.2-0.9-5.7-1.4-10.6-1.4c-6.8,0-12.7,2.7-17.7,8.2s-7.5,11.9-7.5,19.2L961.1,979.6
			L961.1,979.6z"/>
		<path fill="#FFFFFF" d="M1099.6,979.6h-21.7l-30-45.2l-14.7,14.5v30.7h-18V839.4h18v86.4l41.5-42.1h23.1v0.8l-37.4,37.2l39.2,57.2
			V979.6z"/>
		<path fill="#FFFFFF" d="M1235.1,962.4v17.2h-85.4v-18l34.7-35.1c11.6-11.9,19.6-20.8,24.1-26.7c4.4-5.9,6.7-12.2,6.7-18.7
			c0-5.9-2.3-10.9-6.9-15.1c-4.6-4.2-10.4-6.3-17.6-6.3c-6.1,0-11.4,1.8-15.9,5.5c-4.4,3.7-7.3,8.1-8.6,13.3l-16.5-6.7
			c2.6-8.2,7.6-15.2,15.1-20.9c7.4-5.7,16.2-8.5,26.2-8.5c12.1,0,22.3,3.7,30.4,11.2c8.1,7.4,12.1,16.6,12.1,27.4
			c0,12.9-7.1,26.9-21.3,41.9l-39.2,39.4L1235.1,962.4L1235.1,962.4z"/>
		<path fill="#FFFFFF" d="M1252.3,912.6c0-20.4,5-37.1,15.1-50.3s23-19.8,38.8-19.8s28.7,6.7,38.8,20c10.1,13.2,15.1,29.9,15.1,50.1
			c0,20.1-5,36.9-15.1,50.3c-10.1,13.2-23,19.8-38.8,19.8s-28.7-6.6-38.8-19.8C1257.3,949.5,1252.3,932.7,1252.3,912.6z
			 M1341.6,912.6c0-15.4-3.3-28.1-9.8-38c-6.4-9.9-15-14.9-25.7-14.9s-19.3,5-25.7,14.9c-6.5,9.9-9.8,22.6-9.8,38s3.3,28.1,9.8,38.2
			c6.4,9.8,14.9,14.7,25.7,14.7c10.7,0,19.3-5,25.7-14.9C1338.4,940.6,1341.6,927.9,1341.6,912.6z"/>
		<path fill="#FFFFFF" d="M1425.4,845.7v134h-18V868l-26,11.4l-6.9-15.3l39.4-18.4H1425.4z"/>
		<path fill="#FFFFFF" d="M1500.6,894.6c10.8,0,20.5,4.3,29,12.9c8.6,8.5,12.9,18.6,12.9,30.4c0,12-4.6,22.5-13.7,31.5
			c-9.3,8.9-20,13.3-32.1,13.3c-12.9,0-23.8-4.4-32.7-13.3c-8.9-8.9-13.3-19.4-13.3-31.5c0-10.8,4.4-23.2,13.1-37l39-58.4l14.5,10
			l-33.1,45.8l0.4,0.4C1488.6,896,1494,894.6,1500.6,894.6z M1468.9,938.1c0,7.7,2.7,14.2,8,19.6c5.4,5.2,11.9,7.8,19.8,7.8
			s14.4-2.6,19.6-7.8c5.4-5.4,8-11.9,8-19.6c0-7.6-2.7-14-8.2-19.4c-5.4-5.4-11.8-8-19.4-8c-7.4,0-14,2.7-19.6,8
			C1471.7,924.1,1468.9,930.5,1468.9,938.1z"/>
	</g>
</g>
<g id="XMLID_261_">
	<path id="XMLID_259_" fill="#FFFFFF" d="M4.5,615h-61.6l176,305.1l30.9-53.4L4.5,615z"/>
	<path id="XMLID_258_" fill="#FFFFFF" d="M173.5,788.5L73.2,615H11.7l141.7,245.6l20-34.7c3.2-5.3,5.3-11.8,5.3-18.7
		C178.6,800.4,176.7,794.1,173.5,788.5z"/>
	<path id="XMLID_257_" fill="#FFFFFF" d="M50.3,813.5L-55.4,996.4H6.2l75-129.7L50.3,813.5z"/>
	<path id="XMLID_256_" fill="#FFFFFF" d="M84.6,873L13.5,996.4h61.4l40.6-70.2L84.6,873z"/>
</g>
</svg>
