<?xml version="1.0" encoding="utf-8"?>
<!-- Generator: Adobe Illustrator 17.1.0, SVG Export Plug-In . SVG Version: 6.00 Build 0)  -->
<!DOCTYPE svg PUBLIC "-//W3C//DTD SVG 1.1//EN" "http://www.w3.org/Graphics/SVG/1.1/DTD/svg11.dtd">
<svg version="1.1" id="Layer_4" xmlns="http://www.w3.org/2000/svg" xmlns:xlink="http://www.w3.org/1999/xlink" x="0px" y="0px"
	 viewBox="0 0 1614.5 448" enable-background="new 0 0 1614.5 448" xml:space="preserve">
<g>
	<g>
		<g>
			<defs>
				<rect id="SVGID_1_" x="77.8" y="16.5" width="400.1" height="400.1"/>
			</defs>
			<clipPath id="SVGID_2_">
				<use xlink:href="#SVGID_1_"  overflow="visible"/>
			</clipPath>
		</g>
	</g>
	<g id="XMLID_50_">
		<g id="XMLID_72_">
			<path fill="none" d="M357.8,204.1L287.9,83.2h-93.5l77.1,133.4L194.5,350h93.5l69.9-120.9C362.3,221.4,362.3,211.8,357.8,204.1z"
				/>
			<polygon id="XMLID_80_" fill="#FFC107" points="317.7,296.4 295.6,258 242.4,350 287.9,350 318.3,297.4 			"/>
			<path fill="none" d="M357.8,204.1L287.9,83.2h-93.5l77.1,133.4L194.5,350h93.5l69.9-120.9C362.3,221.4,362.3,211.8,357.8,204.1z"
				/>
			<polygon fill="#0F9D58" points="271.6,216.6 295.6,258 242.4,350 194.5,350 			"/>
			<path fill="none" d="M357.8,204.1L287.9,83.2h-93.5l77.1,133.4L194.5,350h93.5l69.9-120.9C362.3,221.4,362.3,211.8,357.8,204.1z"
				/>
			<polygon opacity="0.2" fill="#BF360C" enable-background="new    " points="287.9,347.9 243.6,347.9 242.4,350 287.9,350 
				318.3,297.4 317.7,296.4 			"/>
			<path fill="none" d="M357.8,204.1L287.9,83.2h-93.5l77.1,133.4L194.5,350h93.5l69.9-120.9C362.3,221.4,362.3,211.8,357.8,204.1z"
				/>
			<polygon opacity="0.2" fill="#263238" enable-background="new    " points="195.7,347.9 194.5,350 242.4,350 243.6,347.9 			"/>
			<path fill="none" d="M357.8,204.1L287.9,83.2h-93.5l77.1,133.4L194.5,350h93.5l69.9-120.9C362.3,221.4,362.3,211.8,357.8,204.1z"
				/>
			<polygon opacity="0.2" fill="#FFFFFF" enable-background="new    " points="194.5,350 195.7,350 272.2,217.6 271.6,216.6 			"/>
			<path fill="none" d="M357.8,204.1L287.9,83.2h-93.5l77.1,133.4L194.5,350h93.5l69.9-120.9C362.3,221.4,362.3,211.8,357.8,204.1z"
				/>
			
				<radialGradient id="XMLID_2_" cx="317.9899" cy="153.433" r="92.2445" gradientTransform="matrix(1 0 0 -1 0 450)" gradientUnits="userSpaceOnUse">
				<stop  offset="0" style="stop-color:#BF360C;stop-opacity:0.2"/>
				<stop  offset="1" style="stop-color:#BF360C;stop-opacity:2.000000e-02"/>
			</radialGradient>
			<polygon id="XMLID_79_" fill="url(#XMLID_2_)" points="318.3,297.4 318.3,297.4 295.6,258 290,267.7 			"/>
			<path fill="none" d="M357.8,204.1L287.9,83.2h-93.5l77.1,133.4L194.5,350h93.5l69.9-120.9C362.3,221.4,362.3,211.8,357.8,204.1z"
				/>
			
				<radialGradient id="XMLID_3_" cx="317.7279" cy="152.8497" r="92.9933" gradientTransform="matrix(1 0 0 -1 0 450)" gradientUnits="userSpaceOnUse">
				<stop  offset="0" style="stop-color:#263238;stop-opacity:0.2"/>
				<stop  offset="1" style="stop-color:#263238;stop-opacity:2.000000e-02"/>
			</radialGradient>
			<polygon id="XMLID_78_" fill="url(#XMLID_3_)" points="290,267.7 295.6,258 271.6,216.6 260.2,236.4 			"/>
			<path fill="none" d="M357.8,204.1L287.9,83.2h-93.5l77.1,133.4L194.5,350h93.5l69.9-120.9C362.3,221.4,362.3,211.8,357.8,204.1z"
				/>
			<g id="XMLID_75_">
				<g id="XMLID_76_">
					<polygon id="XMLID_77_" fill="#4285F4" points="242.4,83.2 194.5,83.2 318.3,297.4 342.3,256 342.3,255.9 					"/>
				</g>
			</g>
			<path fill="none" d="M357.8,204.1L287.9,83.2h-93.5l77.1,133.4L194.5,350h93.5l69.9-120.9C362.3,221.4,362.3,211.8,357.8,204.1z"
				/>
			<path fill="#DB4437" d="M357.8,229.1c4.5-7.7,4.5-17.3,0-25L287.9,83.2h-45.5l99.9,172.7L357.8,229.1z"/>
			<path fill="none" d="M357.8,204.1L287.9,83.2h-93.5l77.1,133.4L194.5,350h93.5l69.9-120.9C362.3,221.4,362.3,211.8,357.8,204.1z"
				/>
			<polygon opacity="0.2" fill="#1A237E" enable-background="new    " points="342.3,255.9 341.7,254.9 318.3,295.3 195.7,83.2 
				194.5,83.2 318.3,297.4 342.3,256 			"/>
			<path fill="none" d="M357.8,204.1L287.9,83.2h-93.5l77.1,133.4L194.5,350h93.5l69.9-120.9C362.3,221.4,362.3,211.8,357.8,204.1z"
				/>
			<path opacity="0.2" fill="#FFFFFF" enable-background="new    " d="M287.9,85.3l69.9,120.9c2.1,3.6,3.1,7.5,3.3,11.5
				c0.2-4.7-0.9-9.4-3.3-13.5L287.9,83.2h-93.5l1.2,2.1H287.9z"/>
			<path fill="none" d="M357.8,204.1L287.9,83.2h-93.5l77.1,133.4L194.5,350h93.5l69.9-120.9C362.3,221.4,362.3,211.8,357.8,204.1z"
				/>
			<path id="XMLID_74_" opacity="0.2" fill="#3E2723" enable-background="new    " d="M342.3,255.9l15.5-26.8
				c2.4-4.2,3.5-8.9,3.3-13.5c-0.2,4-1.2,7.9-3.3,11.5l-16.1,27.9L342.3,255.9z"/>
			<path fill="none" d="M357.8,204.1L287.9,83.2h-93.5l77.1,133.4L194.5,350h93.5l69.9-120.9C362.3,221.4,362.3,211.8,357.8,204.1z"
				/>
			
				<radialGradient id="XMLID_4_" cx="192.3743" cy="364.6949" r="279.9841" gradientTransform="matrix(1 0 0 -1 0 450)" gradientUnits="userSpaceOnUse">
				<stop  offset="0" style="stop-color:#FFFFFF;stop-opacity:0.1"/>
				<stop  offset="1" style="stop-color:#FFFFFF;stop-opacity:0"/>
			</radialGradient>
			<path id="XMLID_73_" fill="url(#XMLID_4_)" d="M357.8,204.1L287.9,83.2h-93.5l77.1,133.4L194.5,350h93.5l69.9-120.9
				C362.3,221.4,362.3,211.8,357.8,204.1z"/>
		</g>
	</g>
</g>
</svg>
